<?xml version="1.0" encoding="UTF-8" standalone="no"?>
<svg
   xmlns:dc="http://purl.org/dc/elements/1.1/"
   xmlns:cc="http://creativecommons.org/ns#"
   xmlns:rdf="http://www.w3.org/1999/02/22-rdf-syntax-ns#"
   xmlns:svg="http://www.w3.org/2000/svg"
   xmlns="http://www.w3.org/2000/svg"
   xmlns:xlink="http://www.w3.org/1999/xlink"
   xmlns:sodipodi="http://sodipodi.sourceforge.net/DTD/sodipodi-0.dtd"
   xmlns:inkscape="http://www.inkscape.org/namespaces/inkscape"
   id="ant"
   viewBox="0 0 200 184"
   version="1.0"
   inkscape:version="0.91 r13725"
   sodipodi:docname="ant.svg"
   width="200"
   height="184">
  <sodipodi:namedview
     pagecolor="#ffffff"
     bordercolor="#666666"
     borderopacity="1"
     objecttolerance="10"
     gridtolerance="10"
     guidetolerance="10"
     inkscape:pageopacity="0"
     inkscape:pageshadow="2"
     inkscape:window-width="1920"
     inkscape:window-height="1017"
     id="namedview18"
     showgrid="false"
     inkscape:zoom="3.4137555"
     inkscape:cx="102.23729"
     inkscape:cy="86.237288"
     inkscape:window-x="-8"
     inkscape:window-y="-8"
     inkscape:window-maximized="1"
     inkscape:current-layer="ant" />
  <defs
     id="defs3">
    <linearGradient
       id="WhiteTransparent">
      <stop
         style="stop-color:white"
         offset="0"
         id="stop6" />
      <stop
         style="stop-color:white;stop-opacity:0"
         offset="1"
         id="stop8" />
    </linearGradient>
    <linearGradient
       id="linearGradient3153"
       y2="472.51999"
       xlink:href="#WhiteTransparent"
       gradientUnits="userSpaceOnUse"
       x2="680.06"
       gradientTransform="matrix(0.63377,2.3652,-2.3652,0.63377,761.18,-1845.5)"
       y1="471.38"
       x1="682.03998" />
    <linearGradient
       id="linearGradient3156"
       y2="474.35001"
       xlink:href="#WhiteTransparent"
       gradientUnits="userSpaceOnUse"
       x2="676.89001"
       gradientTransform="matrix(-2.3652,-0.63377,-0.63377,2.3652,1976,-632.1)"
       y1="471.57001"
       x1="681.71997" />
  </defs>
  <g
     id="ant-group"
     transform="matrix(1.2512931,1.2512931,-1.2512931,1.2512931,88.879349,-69.867278)">
    <path
       id="ant-shape"
       style="fill:#222222"
       d="m 60.03,2.56 c -1.32,-0.13 -2.87,13.09 -2.94,13.88 -0.98,10.95 3.75,16.09 3.47,17.59 -0.27,1.5 -0.29,7.4 4.07,13.5 -1.34,1.38 -2.55,2.74 -3.63,4.1 -2.33,-4.1 -5.19,-8.48 -7.22,-10.5 -2.13,-2.14 -11.38,-7.35 -13.28,-8.04 -0.67,-0.24 -8.72,-8.71 -9.62,-7.81 -0.91,0.91 6.98,9.47 7.78,9.35 2.51,3.46 12.51,10.37 13.25,11.43 0.73,1.07 5.64,10.01 5.68,10.07 -1.87,2.91 -2.42,4.97 -3.12,7.46 -3.34,-3.54 -12.92,-6.31 -19.81,-6.31 -5.72,0 -15.11,-0.14 -16.85,0.16 -6.49,1.11 -17.17,14.2 -15.68,15.69 1.17,1.17 9.01,-12.27 15.5,-13.38 1.87,-0.32 16.45,2.43 18.62,2.28 2.17,-0.15 9.2,3.56 13.13,4.13 -3.73,-0.8 -7.57,-0.06 -10.72,3.09 -11.7,11.7 -10.31,22.52 -5.78,27.16 0,0 -0.01,0.02 0,0.03 l 0.03,0.03 0.03,0.03 0.03,0.03 c 4.64,4.52 15.44,5.87 27.12,-5.81 2.94,-2.93 3.79,-6.49 3.25,-9.97 0.88,4.01 4.14,10.34 4,12.38 -0.14,2.17 2.57,16.71 2.25,18.59 -1.1,6.49 -14.55,14.35 -13.37,15.53 1.48,1.48 14.58,-9.2 15.69,-15.69 0.29,-1.74 0.15,-11.12 0.15,-16.84 0,-6.9 -2.76,-16.47 -6.31,-19.81 2.49,-0.7 4.58,-1.29 7.5,-3.16 0.05,0.04 8.96,4.98 10.03,5.72 1.07,0.74 7.97,10.74 11.44,13.25 -0.13,0.8 8.44,8.69 9.34,7.78 0.91,-0.9 -7.57,-8.99 -7.81,-9.66 -0.68,-1.9 -5.86,-11.11 -8,-13.25 -2.03,-2.02 -6.44,-4.91 -10.53,-7.25 1.35,-1.07 2.74,-2.25 4.12,-3.59 6.11,4.35 12.01,4.34 13.5,4.06 1.5,-0.27 6.64,4.46 17.6,3.47 0.78,-0.07 14.01,-1.62 13.87,-2.94 -0.16,-1.55 -12.4,-0.01 -13.22,0.38 -2.17,-0.73 -13.65,-3.03 -14.81,-3.53 -1.16,-0.51 -6.86,-3.21 -14,-5 1.93,-3.3 1.98,-6.8 0.81,-9.85 2.92,2.91 5.61,4.46 8.82,1.25 3.51,-3.51 6.07,-7.42 7.53,-11.15 4.72,1.49 8.7,2.01 9.62,2.44 0.93,0.42 2.12,-0.25 3.19,-3.88 1.75,-5.97 2.81,-11.6 2.13,-11.91 -0.69,-0.3 -5.9,9.53 -5.54,13.13 -2.76,-1.93 -5.06,-2.71 -8.37,-3.31 0.79,-3.87 0.21,-7.25 -1.94,-9.47 0,-0.01 0.01,-0.03 0,-0.03 -0.02,-0.02 -0.04,-0.05 -0.06,-0.07 -2.22,-2.16 -5.66,-2.76 -9.53,-1.96 -0.61,-3.31 -1.36,-5.62 -3.28,-8.38 3.59,0.37 13.43,-4.82 13.12,-5.5 -0.31,-0.68 -5.93,0.34 -11.9,2.09 -3.64,1.07 -4.31,2.3 -3.88,3.22 0.43,0.93 0.95,4.91 2.44,9.63 -3.73,1.45 -7.65,4.02 -11.16,7.53 -3.2,3.2 -1.66,5.9 1.25,8.81 -3.05,-1.16 -6.55,-1.11 -9.84,0.81 -1.79,-7.14 -4.53,-12.84 -5.03,-14 -0.51,-1.16 -2.77,-12.67 -3.5,-14.84 0.39,-0.81 1.93,-13.03 0.37,-13.19 z"
       inkscape:connector-curvature="0" />
    <path
       id="ant-specularity"
       style="opacity:0.4;fill:url(#linearGradient3156)"
       d="m 37.95,72.93 c 5.23,-5.24 9.57,-7.54 15.82,-1.28 0.81,0.81 0.42,2.25 -0.83,3.5 C 50.24,77.86 44.31,83.79 41.6,86.5 30.62,97.49 28.44,82.41 37.95,72.93 Z M 79.2,34.66 c 4.19,-3.54 6.85,-4.97 11.36,-6.73 4.16,-1.62 6.05,-1.67 7.79,0.05 1.6,1.61 -2.63,4.49 -8.85,10.7 -2.82,2.84 -5.37,6.47 -8.05,3.77 -2.68,-2.68 -5.13,-5.34 -2.25,-7.79 z M 64.7,49.37 c 2.44,-2.8 5.76,-5.31 9.17,-5.31 2.06,-0.01 4.04,0.01 5.42,1.37 2.32,2.34 -3.64,6.96 -6.45,9.76 -2.89,2.87 -10.05,10.49 -12.71,12.14 -2.66,1.64 -4.59,-3.56 -3.24,-6.79 1.4,-3.33 4.52,-7.9 7.81,-11.17 z"
       inkscape:connector-curvature="0" />
    <path
       id="ant-gloss"
       style="opacity:0.4;fill:url(#linearGradient3153)"
       d="m 55.17,92.55 c 5.23,-5.24 7.52,-9.58 1.27,-15.84 -5.49,-0.52 -11.16,8.47 -14.87,12.2 -10.97,10.96 4.09,13.12 13.6,3.64 z M 93.41,51.29 c 3.56,-4.17 4.97,-6.84 6.74,-11.35 1.6,-4.18 1.68,-6.06 -0.06,-7.79 -4.19,0.64 -17.39,11.77 -14.46,16.89 2.69,2.68 5.33,5.12 7.78,2.25 z m -14.7,14.49 c 2.79,-2.42 5.32,-5.76 5.32,-9.16 -0.01,-2.06 -0.02,-4.05 -1.37,-5.4 -7.51,0.32 -17.31,13.26 -21.92,19.14 -1.62,2.65 3.59,4.58 6.8,3.22 3.32,-1.39 7.9,-4.5 11.17,-7.8 z"
       inkscape:connector-curvature="0" />
  </g>
  <metadata
     id="metadata16">
    <rdf:RDF>
      <cc:Work>
        <dc:format>image/svg+xml</dc:format>
        <dc:type
           rdf:resource="http://purl.org/dc/dcmitype/StillImage" />
        <cc:license
           rdf:resource="http://creativecommons.org/publicdomain/zero/1.0/" />
        <dc:publisher>
          <cc:Agent
             rdf:about="http://openclipart.org/">
            <dc:title>Openclipart</dc:title>
          </cc:Agent>
        </dc:publisher>
        <dc:title></dc:title>
        <dc:date>2006-08-29T16:35:08</dc:date>
        <dc:description>Balanced ant design with specularity</dc:description>
        <dc:source>https://openclipart.org/detail/66/ant-by-andy</dc:source>
        <dc:creator>
          <cc:Agent>
            <dc:title>Andy</dc:title>
          </cc:Agent>
        </dc:creator>
        <dc:subject>
          <rdf:Bag>
            <rdf:li>animal</rdf:li>
            <rdf:li>ant</rdf:li>
            <rdf:li>black</rdf:li>
            <rdf:li>black &amp; white</rdf:li>
            <rdf:li>bug</rdf:li>
            <rdf:li>creature</rdf:li>
            <rdf:li>creepy</rdf:li>
            <rdf:li>glossy</rdf:li>
            <rdf:li>icon</rdf:li>
            <rdf:li>insect</rdf:li>
            <rdf:li>logo</rdf:li>
            <rdf:li>shiny</rdf:li>
            <rdf:li>spooky</rdf:li>
          </rdf:Bag>
        </dc:subject>
      </cc:Work>
      <cc:License
         rdf:about="http://creativecommons.org/publicdomain/zero/1.0/">
        <cc:permits
           rdf:resource="http://creativecommons.org/ns#Reproduction" />
        <cc:permits
           rdf:resource="http://creativecommons.org/ns#Distribution" />
        <cc:permits
           rdf:resource="http://creativecommons.org/ns#DerivativeWorks" />
      </cc:License>
    </rdf:RDF>
  </metadata>
</svg>
