<?xml version="1.0" encoding="UTF-8" standalone="no"?>
<!-- Created with Inkscape (http://www.inkscape.org/) -->

<svg
   width="350"
   height="161"
   viewBox="0 0 92.604166 42.597916"
   version="1.1"
   id="svg1"
   inkscape:version="1.4.3 (0d15f75, 2025-12-25)"
   sodipodi:docname="ant_sideview.svg"
   xmlns:inkscape="http://www.inkscape.org/namespaces/inkscape"
   xmlns:sodipodi="http://sodipodi.sourceforge.net/DTD/sodipodi-0.dtd"
   xmlns="http://www.w3.org/2000/svg"
   xmlns:svg="http://www.w3.org/2000/svg">
  <sodipodi:namedview
     id="namedview1"
     pagecolor="#505050"
     bordercolor="#eeeeee"
     borderopacity="1"
     inkscape:showpageshadow="0"
     inkscape:pageopacity="0"
     inkscape:pagecheckerboard="0"
     inkscape:deskcolor="#505050"
     inkscape:document-units="mm"
     inkscape:zoom="4.0315403"
     inkscape:cx="228.20062"
     inkscape:cy="84.086967"
     inkscape:window-width="1920"
     inkscape:window-height="1009"
     inkscape:window-x="-8"
     inkscape:window-y="-8"
     inkscape:window-maximized="1"
     inkscape:current-layer="layer1" />
  <defs
     id="defs1" />
  <g
     inkscape:label="Ebene 1"
     inkscape:groupmode="layer"
     id="layer1">
    <path
       style="fill:#000000;stroke-width:0.264582"
       d="m 55.922302,42.245763 c 5.38e-4,-0.10392 0.198674,-0.501952 0.269581,-0.541642 0.09316,-0.05204 0.05982,-0.132822 -0.05464,-0.132822 -0.133711,0 -0.203072,-0.09953 -0.291462,-0.41835 -0.0663,-0.239122 -0.10205,-0.308242 -0.125757,-0.243484 -0.04186,0.11394 -0.164456,0.271479 -0.201757,0.259209 -0.07371,-0.02426 -0.195145,-0.275859 -0.235326,-0.487534 -0.02093,-0.110523 -0.04778,-0.402199 -0.05945,-0.648147 -0.01111,-0.245957 -0.02945,-0.486015 -0.03926,-0.533465 -0.01667,-0.0827 -0.02389,-0.07945 -0.162789,0.08047 -0.07964,0.09177 -0.156863,0.166771 -0.171494,0.166771 -0.04538,0 -0.110014,-0.488043 -0.163725,-1.234221 -0.0489,-0.680947 -0.115746,-1.23423 -0.148898,-1.23423 -0.03482,0 -0.285508,0.197303 -0.371658,0.292611 l -0.09279,0.102624 -0.02482,-0.778959 c -0.05871,-1.85304 -0.267756,-3.876184 -0.630885,-6.10754 -0.121302,-0.745752 -0.177235,-0.914088 -0.302946,-0.914088 -0.06501,0 -0.101309,0.04667 -0.187995,0.241475 -0.05908,0.132813 -0.143352,0.354174 -0.187367,0.491905 -0.119274,0.373445 -0.149648,0.447186 -0.184088,0.447186 -0.05815,0 -0.03186,-0.655018 0.04019,-1.001692 0.08946,-0.430508 0.08927,-0.581323 -9.26e-4,-0.843995 -0.117968,-0.342886 -0.378103,-1.355857 -0.476865,-1.856994 -0.261858,-1.328603 -0.396717,-2.767056 -0.472949,-5.044217 -0.01297,-0.373844 -0.02704,-0.752162 -0.03223,-0.840704 -0.0056,-0.08855 -0.01111,-0.272334 -0.01482,-0.408427 -0.0019,-0.136085 -0.01667,-0.235948 -0.03,-0.221903 -0.01482,0.01408 -0.05371,0.193372 -0.08834,0.398499 -0.09297,0.552638 -0.268006,0.861466 -0.583731,1.030474 -0.19634,0.105083 -0.650888,0.108768 -0.858609,0.007 -0.317735,-0.155753 -0.507323,-0.430324 -0.772385,-1.118617 -0.04112,-0.106954 -0.168715,-0.106954 -0.191163,0 -0.0093,0.04426 -0.04352,0.241478 -0.07612,0.438238 -0.06705,0.405423 -0.162243,0.798428 -0.266469,1.099901 l -0.07093,0.205535 0.08649,0.298699 c 0.09352,0.32288 0.178717,0.832264 0.157233,0.940403 -0.0093,0.0428 -0.101114,-0.100971 -0.256208,-0.398061 -0.133526,-0.255788 -0.256329,-0.478743 -0.272757,-0.495453 -0.05167,-0.05264 -0.182801,0.01463 -0.220167,0.113101 -0.08909,0.234555 -0.322883,1.642026 -0.458483,2.761366 -0.08797,0.726712 -0.181125,2.07954 -0.181681,2.640778 -4.07e-4,0.462521 -0.02649,0.686253 -0.08001,0.686253 -0.01945,0 -0.09963,-0.0663 -0.178346,-0.147417 -0.16279,-0.167697 -0.204832,-0.148065 -0.205776,0.09594 -8.15e-4,0.211212 -0.130563,1.111419 -0.200035,1.388204 -0.03278,0.130544 -0.07927,0.237363 -0.103346,0.237363 -0.02408,0 -0.07408,-0.0563 -0.111116,-0.12522 -0.11057,-0.205387 -0.116867,-0.195839 -0.228112,0.34697 -0.09778,0.477505 -0.306984,0.923033 -0.433314,0.923033 -0.01852,0 -0.07408,-0.06556 -0.124637,-0.145583 l -0.09186,-0.145592 -0.118524,0.155279 c -0.13335,0.174568 -0.425091,0.350775 -0.579833,0.350127 -0.249031,-9.26e-4 -0.614772,-0.143046 -0.75491,-0.293139 -0.06908,-0.07408 -0.0752,-0.102466 -0.04463,-0.208869 0.06575,-0.228973 0.05445,-0.248837 -0.140749,-0.248837 -0.225835,0 -0.359509,0.106699 -0.471171,0.376103 -0.126303,0.304909 -0.196071,0.236197 -0.142601,-0.140675 0.0463,-0.327597 0.156677,-0.510083 0.410422,-0.679271 0.159455,-0.106337 0.331542,-0.119154 0.552579,-0.04121 l 0.146315,0.05158 0.111671,-0.141027 c 0.06149,-0.0776 0.12797,-0.141027 0.147787,-0.141027 0.01982,0 0.08334,0.03352 0.140759,0.07455 l 0.104633,0.07455 0.151307,-0.09159 c 0.08316,-0.05038 0.222259,-0.153779 0.308992,-0.229779 0.159456,-0.13974 0.172606,-0.221204 0.03575,-0.221204 -0.145565,0 -0.110755,-0.106819 0.136304,-0.419794 0.308011,-0.389975 0.672205,-0.90116 0.70132,-0.984355 0.01852,-0.05278 -4.07e-4,-0.0626 -0.120015,-0.0626 -0.08983,0 -0.141861,-0.01648 -0.141861,-0.04473 0,-0.02463 0.07297,-0.326439 0.161863,-0.670779 0.421405,-1.631975 0.447668,-1.766649 0.749882,-3.845766 l 0.1872,-1.287887 -0.08186,-0.07155 c -0.12445,-0.10862 -0.229797,-0.308609 -0.229964,-0.436279 0,-0.10473 0.04945,-0.464353 0.196645,-1.424004 0.03019,-0.196758 0.11094,-0.745859 0.179644,-1.220221 l 0.12483,-0.862477 -0.07482,-0.169162 c -0.09852,-0.222846 -0.133711,-0.765211 -0.06816,-1.049877 0.05353,-0.232179 0.11445,-0.370069 0.234141,-0.530102 l 0.08316,-0.111287 -0.225667,-0.02108 c -0.268765,-0.0251 -0.622143,-0.160068 -0.915514,-0.349693 -0.247985,-0.160291 -1.240907,-1.119671 -1.647717,-1.592092 -0.646786,-0.751034 -1.322936,-1.8049 -1.624242,-2.531528 -0.06593,-0.159161 -0.134453,-0.294223 -0.152233,-0.300117 -0.01852,-0.0059 -0.07908,0.09473 -0.136674,0.223614 -0.06816,0.152828 -0.144278,0.261596 -0.218945,0.312722 l -0.114459,0.0784 0.157789,0.168699 c 0.215184,0.230052 0.410385,0.540152 0.660759,1.049696 0.259228,0.527523 0.429518,1.035692 0.55144,1.645633 0.05112,0.255787 0.1326,0.618006 0.18094,0.804929 0.04834,0.186923 0.135563,0.581336 0.193645,0.876477 0.07242,0.36826 0.142786,0.615187 0.224389,0.787042 0.111116,0.234185 0.11871,0.274781 0.11871,0.626056 0,0.342356 -0.0093,0.393063 -0.101485,0.572384 -0.287046,0.557023 -0.738066,0.84388 -1.170065,0.744166 l -0.174642,-0.04032 -0.159085,0.146679 c -0.406052,0.374271 -1.066922,0.567791 -2.06165,0.603692 -0.857126,0.03093 -1.449285,-0.04273 -2.826199,-0.351538 -0.442704,-0.09929 -0.909569,-0.203075 -1.037474,-0.230626 -0.12797,-0.02756 -0.393513,-0.08968 -0.590269,-0.138049 -0.872092,-0.214408 -1.32413,-0.243657 -1.878172,-0.121529 -0.710859,0.156699 -0.734686,0.15894 -0.877056,0.08273 -0.07112,-0.03802 -0.154825,-0.09745 -0.186347,-0.132029 -0.05315,-0.05845 -0.06186,-0.05875 -0.122229,-0.0041 -0.106865,0.09664 -0.274358,0.586607 -0.330051,0.965003 -0.02871,0.194725 -0.07075,0.579425 -0.09371,0.854891 -0.104828,1.263297 -0.547236,3.063458 -1.046419,4.257182 -0.04945,0.118043 -0.110014,0.279035 -0.134647,0.35774 -0.02463,0.07871 -0.145009,0.392632 -0.267534,0.697606 -0.122422,0.304983 -0.291879,0.755744 -0.376362,1.001692 l -0.153723,0.447186 0.04871,0.339857 c 0.02667,0.186922 0.04889,0.53304 0.04926,0.769153 6.86e-4,0.406551 -0.0056,0.443769 -0.116681,0.702496 -0.109449,0.255023 -0.23278,0.424924 -0.27648,0.381206 -0.01111,-0.01037 -0.0019,-0.08946 0.01667,-0.175661 0.04593,-0.199535 0.0476,-0.736788 0.0037,-1.01536 -0.03797,-0.237919 -0.205646,-0.626051 -0.270413,-0.626051 -0.06816,0 -0.150381,0.116746 -0.17631,0.25042 -0.0926,0.47607 -0.272488,0.840514 -0.694097,1.406372 -0.667112,0.895428 -0.79723,1.259502 -1.185168,3.315882 -0.309048,1.638179 -0.469689,2.291549 -0.679484,2.76359 -0.04149,0.09346 -0.08686,0.169716 -0.100753,0.169457 -0.01297,-4.08e-4 -0.103523,-0.120988 -0.199442,-0.268312 -0.09574,-0.147306 -0.185588,-0.267839 -0.199424,-0.267839 -0.04741,0 -0.420682,0.554597 -0.662009,0.9838 -0.316438,0.562701 -0.697079,1.162675 -0.737677,1.162675 -0.01852,0 -0.08649,-0.107607 -0.152787,-0.239142 l -0.120571,-0.239123 -0.06371,0.104967 c -0.236965,0.390698 -0.479283,0.717137 -0.644294,0.867962 -0.219889,0.20096 -0.468263,0.355628 -0.619773,0.385928 -0.0976,0.01954 -0.105939,0.01222 -0.129831,-0.115607 -0.01482,-0.0751 -0.04982,-0.183347 -0.07945,-0.240669 -0.0513,-0.09908 -0.0626,-0.103171 -0.231038,-0.08325 -0.221871,0.0263 -0.942119,0.249429 -1.201597,0.372287 -0.192626,0.09122 -0.194941,0.09415 -0.17317,0.220871 0.04167,0.243716 0.06427,0.574258 0.04278,0.630061 -0.06093,0.158825 -0.34797,-0.285592 -0.398977,-0.617754 -0.05834,-0.379437 -0.534225,-0.39593 -0.847329,-0.02936 -0.06001,0.07019 -0.122969,0.127581 -0.140194,0.127581 -0.05241,0 -0.03334,-0.152732 0.03908,-0.31228 0.07297,-0.160909 0.214518,-0.269302 0.44189,-0.338589 0.08816,-0.02686 0.154639,-0.07668 0.187792,-0.140694 0.166863,-0.322828 0.826178,-0.56721 1.53925,-0.5706 0.376344,-0.0019 0.404829,-0.0074 0.481838,-0.08899 0.04501,-0.04788 0.110005,-0.08714 0.144454,-0.08714 0.109458,0 1.284255,-0.627885 1.284255,-0.686374 0,-0.01593 -0.04834,-0.02908 -0.107412,-0.02908 -0.05908,0 -0.107421,-0.01593 -0.107421,-0.03556 0,-0.06918 0.441648,-0.465013 0.942119,-0.844487 0.834754,-0.632913 0.800323,-0.5994 0.653481,-0.636256 l -0.08594,-0.02158 0.24041,-0.617328 c 0.461318,-1.184594 0.650684,-1.813275 0.864165,-2.868742 0.170568,-0.843319 0.299167,-1.400205 0.375918,-1.627678 0.105559,-0.312817 0.389938,-0.729379 0.772319,-1.131124 l 0.20598,-0.216407 -0.08816,-0.174235 c -0.04853,-0.09583 -0.08816,-0.223825 -0.08797,-0.284434 7.96e-4,-0.355147 0.306714,-1.229165 1.008988,-2.882744 0.59677,-1.405237 1.286663,-3.184911 1.747332,-4.507601 0.489219,-1.404647 0.639257,-1.735568 0.930386,-2.052202 l 0.168725,-0.183441 -0.07464,-0.129622 c -0.0676,-0.117398 -0.07019,-0.144067 -0.02871,-0.282767 0.102605,-0.342486 0.574637,-0.662163 1.310425,-0.887479 1.359644,-0.41635 2.242978,-0.51025 4.131318,-0.439159 0.600122,0.0226 1.380887,0.07108 1.73509,0.107749 0.354155,0.03667 0.649165,0.06191 0.655592,0.0561 0.01482,-0.01389 -0.207369,-0.216128 -0.709266,-0.643493 -1.34943,-1.149015 -1.930383,-1.998041 -2.059649,-3.009996 -0.02945,-0.229832 0.08594,-0.606366 0.239169,-0.780857 0.1326,-0.15092 0.130378,-0.197636 -0.0093,-0.197636 -0.170392,0 -0.59101,-0.134696 -0.871407,-0.279097 -0.296009,-0.152439 -0.757957,-0.592468 -0.965159,-0.919353 -0.422238,-0.66617 -1.049104,-1.346848 -1.382721,-1.501414 -0.307909,-0.14266 -0.452668,-0.149457 -0.764115,-0.03588 -0.376658,0.137381 -0.641701,0.10049 -1.094499,-0.152346 -0.01111,-0.0065 -0.04093,0.05721 -0.06556,0.141382 -0.165382,0.565722 -0.848792,1.337396 -1.755916,1.982605 -1.560966,1.110237 -3.610818,2.122681 -5.348852,2.641856 -0.307483,0.09183 -0.645776,0.196828 -0.751762,0.23329 -0.369769,0.127233 -0.796545,0.187081 -1.179519,0.165421 -0.32242,-0.01815 -0.375409,-0.01204 -0.536642,0.06203 l -0.178902,0.08227 0.209147,0.134455 c 0.655092,0.421166 1.063551,0.52105 1.560984,0.381702 0.42209,-0.11825 0.725055,-0.08412 1.109103,0.124918 0.157603,0.08577 0.384308,0.291448 0.350905,0.318337 -0.0056,0.0046 -0.179467,-0.01296 -0.386058,-0.03893 -0.542966,-0.06838 -0.789136,-0.06227 -1.04753,0.026 -0.207276,0.07081 -0.247328,0.07318 -0.586991,0.03458 -0.506221,-0.05753 -0.837939,-0.151698 -1.383832,-0.392924 -0.258301,-0.114138 -0.493785,-0.216072 -0.523307,-0.226505 -0.06501,-0.023 -0.943906,0.419353 -1.279125,0.64384 -0.406014,0.27192 -0.532669,0.393709 -0.870807,0.837385 -0.337139,0.44234 -0.554638,0.636214 -0.794287,0.708019 -0.125751,0.03771 -0.158532,0.03241 -0.336232,-0.05453 -0.228722,-0.111899 -0.35801,-0.287813 -0.479187,-0.651961 -0.08946,-0.268744 -0.08075,-0.549941 0.02389,-0.768239 l 0.06427,-0.134197 -0.102971,-0.107415 c -0.140937,-0.147086 -0.13464,-0.245154 0.08205,-1.270994 0.10575,-0.50061 0.157236,-0.559338 0.565677,-0.644786 0.339546,-0.07105 0.641979,-0.229208 0.886276,-0.463493 0.23376,-0.224167 0.231631,-0.257818 -0.01945,-0.30635 -0.244908,-0.04734 -0.481095,-0.03795 -0.639441,0.02541 -0.122973,0.04917 -0.160013,0.05108 -0.232963,0.01204 -0.115566,-0.0619 -0.190405,-0.02513 -0.51045,0.251019 -0.198275,0.17107 -0.261373,0.208793 -0.277782,0.166051 -0.05501,-0.143141 0.194868,-0.637839 0.472206,-0.935188 0.282615,-0.303011 0.289412,-0.317635 0.332342,-0.715035 0.100749,-0.932785 0.180755,-1.404445 0.291412,-1.71718 0.194517,-0.549822 0.506357,-1.109384 0.987878,-1.7726527 C 20.774069,8.8037695 20.957972,8.3867909 21.02837,7.9754741 21.07967,7.6760733 21.07912,7.6494273 21.01907,7.557938 20.929863,7.4202908 20.775242,7.2931044 20.238472,6.9162124 19.107768,6.1222861 18.200341,5.7353391 16.531686,5.3355617 15.097161,4.9918766 14.718167,4.8937429 14.556043,4.8239962 14.387511,4.7515055 14.37288,4.7504128 14.331191,4.8075126 c -0.02445,0.033541 -0.09668,0.2577854 -0.160198,0.4983352 -0.06353,0.2405508 -0.151864,0.5339563 -0.19622,0.6520148 -0.112231,0.2987257 -0.454964,0.9714255 -0.586733,1.1518714 -0.146308,0.200354 -0.216481,0.2351529 -0.342454,0.1697918 -0.05482,-0.028411 -0.11001,-0.051673 -0.122603,-0.051673 -0.01296,0 -0.186515,0.1328066 -0.386272,0.2951392 -0.961875,0.781658 -1.207155,0.9554262 -1.349759,0.9563208 -0.06223,3.926e-4 -0.212611,0.070379 -0.375642,0.1748101 C 10.661853,8.7499088 10.370385,8.914926 10.163794,9.0208125 9.8336927,9.1899931 9.7621494,9.2134063 9.5735228,9.2139212 9.3763775,9.214462 9.3302624,9.231516 9.0081627,9.4228325 8.5190111,9.7133988 8.1753899,9.8635187 7.9535387,9.8835759 7.8333439,9.8945032 7.7357056,9.9268035 7.6852391,9.972513 7.5446722,10.099894 7.057669,10.415064 6.7776087,10.559985 c -0.2310746,0.119584 -0.294691,0.137734 -0.4196271,0.119769 -0.144271,-0.02076 -0.1537158,-0.01537 -0.4692602,0.272382 -0.4109223,0.374686 -0.6870748,0.553992 -0.9312983,0.60469 -0.2052583,0.04262 -0.1705697,0.01019 -0.5787333,0.540968 -0.1387147,0.180366 -0.2827264,0.271744 -0.5026709,0.318897 -0.1653838,0.03549 -0.2019977,0.06049 -0.3026354,0.207234 -0.062971,0.09179 -0.3650119,0.416414 -0.6712589,0.721393 -0.3103957,0.309121 -0.730171,0.776143 -0.9485967,1.055351 C 1.269435,15.275109 0.86006845,15.702042 0.56369211,15.85014 0.30907846,15.977373 0.17604962,15.98515 0.07674448,15.878569 -0.11343788,15.674427 0.0619278,14.938268 0.47262876,14.221732 1.0391568,13.232038 2.1068,12.174911 2.8888461,11.829284 2.9986692,11.780778 3.0538595,11.726757 3.1013072,11.621502 3.2231698,11.351359 3.5453623,11.130853 4.060145,10.965375 4.2645699,10.899644 4.3140363,10.868199 4.350966,10.780378 4.4443065,10.558226 4.9202897,10.27441 5.5347109,10.074458 5.784398,9.9931888 5.8365314,9.9616533 5.9103343,9.8471546 6.0205287,9.6763265 6.1890612,9.5955172 6.8501706,9.396668 7.2607595,9.2731768 7.4078642,9.2123385 7.4941307,9.1303689 7.5556199,9.0719356 7.686517,8.9838939 7.7850433,8.9347248 7.9493159,8.8527329 8.0822716,8.8088626 8.8246284,8.5916462 9.0196076,8.534602 9.0888914,8.4962685 9.1275426,8.4240399 9.1910691,8.3055305 9.3678209,8.2151968 9.7229426,8.1199042 10.485672,7.915245 10.695227,7.8374834 10.706986,7.7547451 c 0.0074,-0.057118 0.07223,-0.1096388 0.225963,-0.1853975 0.397144,-0.1955728 1.051568,-0.5508279 1.230657,-0.668077 0.145382,-0.09523 0.171681,-0.1276207 0.144271,-0.1786994 -0.07057,-0.1319555 -0.0313,-0.2426084 0.190182,-0.5344675 0.122973,-0.1620881 0.260818,-0.344588 0.306285,-0.4055633 0.04538,-0.060989 0.278281,-0.424787 0.517375,-0.8084697 0.326971,-0.524732 0.503653,-0.7685258 0.712874,-0.9838012 0.152975,-0.1574022 0.303413,-0.3224194 0.334287,-0.3666898 0.04908,-0.070472 0.08742,-0.080492 0.306617,-0.080492 1.172022,0 3.114756,0.743993 4.843342,1.8548 0.444796,0.2858371 1.134702,0.8363649 1.542291,1.2307342 0.218629,0.2115323 0.412015,0.3846042 0.429776,0.3846042 0.01852,0 0.101124,-0.088141 0.185218,-0.1958516 C 21.82818,6.6227521 21.828736,6.6208297 21.771506,6.5103407 21.739836,6.4491848 21.596864,6.2757194 21.453892,6.1248522 21.041674,5.6901806 20.657653,5.1834082 20.233768,4.5147015 19.583696,3.4891822 19.252095,3.0004306 19.047689,2.766589 18.810206,2.4948575 18.424157,2.1801585 17.926763,1.8528569 17.535009,1.5950475 17.327863,1.4214496 17.287915,1.3174578 c -0.02074,-0.054136 -0.06816,-0.040857 -0.407163,0.1139162 -0.587955,0.2685229 -1.51781,0.6300389 -1.809167,0.7033954 l -0.26154,0.06586 -0.140752,-0.080992 -0.140753,-0.080992 -0.419941,0.1273069 C 13.30757,2.4087857 12.86333,2.481343 12.767062,2.3850688 12.715202,2.3332108 12.693722,2.3339878 12.519116,2.3939588 12.269059,2.4799508 11.737682,2.601724 11.478327,2.632488 11.323315,2.650824 11.252476,2.643601 11.190619,2.603151 11.114499,2.553274 11.075239,2.561942 10.645055,2.7238644 10.039487,2.9517754 9.817173,2.9962097 9.5828944,2.9361642 L 9.4049172,2.8905658 9.0240156,3.0869295 C 8.5139178,3.3499035 8.3144389,3.4119067 8.041898,3.3921931 7.8249725,3.3764503 7.8217498,3.3777468 7.6071773,3.5507436 7.2890955,3.8073112 7.0625956,3.9077989 6.7967953,3.9103048 6.5879078,3.9123421 6.568573,3.9201209 6.4284877,4.0586134 6.3471811,4.1390495 6.1199626,4.2925485 5.9235758,4.39975 5.5490636,4.6041832 5.2300002,4.803426 4.5469259,5.2593928 3.6071637,5.8867184 3.0302278,6.105885 2.8481391,5.9047123 2.795725,5.8468161 2.7875759,5.7938326 2.8035038,5.6171538 2.8494355,5.1103305 3.4706881,4.4015706 4.4089316,3.7855316 5.1051362,3.3284128 5.5737121,3.1169046 6.0262304,3.0555218 6.1625384,3.037001 6.2284698,3.0030337 6.3331636,2.8973046 6.4922504,2.736551 6.8112398,2.6297032 7.247368,2.5910298 7.4907024,2.569453 7.5472253,2.5515433 7.6285476,2.4702238 7.7818929,2.3168961 8.1289405,2.2249697 8.7233776,2.1802298 9.1507464,2.148059 9.2618473,2.1284269 9.3070178,2.0770352 9.4486959,1.9158741 9.5822813,1.8854666 10.21713,1.8697646 c 0.568379,-0.014076 0.621069,-0.021243 0.804936,-0.1098602 0.18583,-0.089567 0.234556,-0.095879 0.876479,-0.1137875 0.646016,-0.017965 0.685445,-0.023225 0.795232,-0.1046567 0.111121,-0.082381 0.145382,-0.086511 0.891536,-0.1068978 0.627088,-0.017039 0.779342,-0.031022 0.793102,-0.072305 0.04408,-0.1320482 0.175756,-0.2079819 0.403126,-0.2324988 0.126121,-0.01352 0.478928,-0.080529 0.783897,-0.14873458 0.769064,-0.17197729 1.383169,-0.29373156 1.62493,-0.32214719 0.127418,-0.0150019 0.247335,-0.0554144 0.318304,-0.10734133 0.182237,-0.13338167 0.278023,-0.16686553 0.525228,-0.18358987 0.212832,-0.0144463 0.253391,-0.004815 0.478669,0.1126948 0.672759,0.35100268 1.169133,0.86818187 1.703196,1.77450107 0.249631,0.4236442 0.357516,0.6420228 0.892463,1.806618 0.171679,0.3738463 0.405107,0.8407044 0.518584,1.0374654 0.280369,0.4861003 0.637923,1.0180591 0.684865,1.0188926 0.02111,3.778e-4 0.0776,-0.041413 0.125201,-0.09286 C 22.58948,5.8607438 23.09184,5.4842463 23.5093,5.2216733 24.694617,4.4761272 25.951405,3.9174159 27.081335,3.6337319 27.783497,3.4574393 28.112659,3.4219163 28.78417,3.4499392 c 1.611213,0.067231 3.069462,0.6699551 3.731462,1.5422986 0.346618,0.456754 0.587917,1.0616462 0.677697,1.6989628 l 0.02778,0.196761 0.352193,0.010186 c 0.44589,0.012965 0.512287,-0.017595 1.060051,-0.4873125 0.881722,-0.7562251 1.767482,-1.2910334 2.437817,-1.4719137 0.668501,-0.1803848 1.375016,-0.2241144 2.051907,-0.127029 0.921172,0.1321222 1.58972,0.3140536 1.785365,0.4858308 0.11131,0.097675 0.121867,0.1261771 0.144092,0.3827613 0.03019,0.3511657 0.11445,0.8328701 0.186144,1.064278 0.08205,0.2646159 0.414015,1.1673642 0.42485,1.1552413 0.0056,-0.00574 -0.02834,-0.158532 -0.07427,-0.3395299 -0.122599,-0.4832064 -0.195256,-1.0032416 -0.216166,-1.549092 -0.02093,-0.5478081 1.9e-5,-0.6235436 0.201072,-0.7243813 0.167419,-0.084029 0.370806,-0.078399 0.840217,0.023225 0.697282,0.1509561 1.155618,0.3040931 1.860281,0.6215582 1.298961,0.5852128 1.655987,0.804008 2.238487,1.371764 0.512111,0.4991631 0.965224,1.069612 1.06219,1.3372727 0.0213,0.059026 0.04723,0.3488005 0.05741,0.6439415 0.01667,0.5008019 0.06371,0.805209 0.122608,0.804722 0.01296,-1.07e-4 0.02648,-0.1490311 0.02797,-0.3309143 0.0037,-0.3837484 0.06427,-0.7065917 0.154649,-0.8182169 0.08427,-0.1040826 0.302779,-0.1326594 1.039085,-0.1359376 2.012939,-0.00889 3.143629,0.3951675 5.198166,1.8577928 0.165752,0.117974 0.170012,0.125622 0.170012,0.308467 0,0.27667 0.155751,1.062072 0.33845,1.705519 0.08816,0.310881 0.171503,0.584558 0.185227,0.608169 0.01297,0.02361 0.160937,0.232293 0.327153,0.463734 0.166308,0.231441 0.339709,0.512848 0.385437,0.625348 0.04575,0.11249 0.09872,0.209725 0.117608,0.216056 0.01908,0.0063 0.09168,-0.0386 0.161307,-0.09982 0.17242,-0.151383 0.258505,-0.402157 0.307465,-0.895468 0.02241,-0.225503 0.06316,-0.506599 0.09038,-0.624654 0.178161,-0.769512 0.760614,-1.944588 1.068496,-2.155555 0.165567,-0.113417 0.354563,-0.107565 0.450112,0.01389 0.0663,0.08422 0.07408,0.143087 0.07408,0.552168 0,0.269654 0.02204,0.562708 0.05371,0.712824 0.07019,0.33354 0.284971,0.94917 0.518075,1.484831 0.231946,0.532952 0.390966,1.017011 0.572646,1.743096 0.125377,0.50148 0.22126,0.779012 0.268831,0.779012 0.0093,0 0.03963,-0.03623 0.06834,-0.08049 0.04556,-0.07023 0.04593,-0.196926 0.0037,-0.992747 -0.02797,-0.522098 -0.08168,-1.111152 -0.125562,-1.377322 -0.152983,-0.929104 -0.0939,-1.841935 0.166123,-2.566244 0.676409,-1.8843085 2.575825,-2.9059533 6.076702,-3.2684621 0.747632,-0.077417 1.55942,-0.079214 1.920789,-0.00426 0.304909,0.063267 0.611605,0.1993085 0.760448,0.3373408 l 0.09742,0.090336 0.38153,-0.038838 c 1.815516,-0.1848298 3.077972,0.020373 5.354158,0.8702924 0.83129,0.3104028 1.24023,0.5038458 1.661969,0.7861972 0.298454,0.1998007 0.696467,0.5546987 0.833198,0.7429437 0.02463,0.03395 0.200886,0.141605 0.391642,0.239227 0.364972,0.186795 1.114965,0.630943 1.477696,0.875091 0.848996,0.571439 2.21189,1.809724 2.480628,2.25386 0.140203,0.231734 0.289638,0.582339 0.291565,0.684182 9.26e-4,0.07199 0.08297,0.183774 0.489691,0.671239 0.349489,0.418858 0.82127,1.147216 1.051096,1.622751 0.230186,0.476295 0.355369,0.864592 0.465688,1.444396 0.03926,0.206632 0.127609,0.63654 0.196034,0.955349 0.274711,1.27846 0.31153,1.881713 0.145945,2.392445 -0.12409,0.383122 -0.305789,0.651513 -0.679114,1.003486 -0.32994,0.311027 -0.423942,0.468717 -0.466485,0.782439 -0.05482,0.404971 -0.09704,0.521913 -0.214184,0.593305 -0.134638,0.08208 -0.328134,0.08623 -0.72011,0.01537 -0.157427,-0.02845 -0.40694,-0.05217 -0.554514,-0.05273 -0.243818,-9.26e-4 -0.962242,0.08895 -1.413077,0.176774 -0.2503,0.04875 -1.527369,0.173236 -2.021274,0.197029 -0.226297,0.01093 -0.535475,0.02913 -0.687096,0.0405 l -0.275692,0.02069 -0.26357,-0.40605 c -0.790647,-1.218018 -0.944268,-1.471002 -1.571727,-2.5883 -0.15464,-0.275465 -0.698634,-1.342076 -1.208727,-2.370247 -1.537259,-3.098482 -2.295725,-4.321329 -3.459011,-5.576924 -0.317336,-0.342503 -0.409496,-0.465353 -0.435305,-0.58022 -0.06686,-0.297219 -0.328976,-0.634124 -0.631922,-0.81199 -0.216944,-0.127381 -0.581851,-0.200577 -0.867387,-0.174015 -0.711414,0.06619 -1.463639,0.447875 -2.882466,1.462535 -0.841579,0.601862 -1.637411,1.163991 -2.531422,1.788041 -1.162415,0.811401 -1.818156,1.283439 -2.296281,1.652987 -0.424202,0.327862 -1.213477,1.02148 -1.378248,1.211198 -0.05519,0.06343 -0.102967,0.08755 -0.143157,0.07203 -0.03315,-0.01278 -0.454687,-0.133585 -0.936767,-0.268347 -0.847181,-0.236839 -1.085822,-0.316269 -1.768047,-0.588521 -0.204887,-0.08177 -0.377807,-0.127177 -0.482969,-0.126826 -0.308501,0.0011 -0.290851,0.03739 0.199757,0.411517 0.832494,0.63484 1.614926,1.513838 2.037443,2.288919 0.02148,0.03936 0.07279,0.07658 0.114088,0.08275 0.06056,0.0091 0.104819,-0.04164 0.228872,-0.2623 0.347062,-0.617091 0.50548,-0.817812 1.172518,-1.485622 0.881352,-0.882364 0.881556,-0.882523 4.419049,-3.359715 0.570619,-0.399575 1.209635,-0.853095 1.420059,-1.007823 1.003007,-0.737497 2.006467,-1.311647 2.520319,-1.442058 0.745251,-0.189141 1.361079,0.118974 1.461546,0.731257 0.02371,0.144623 0.07242,0.208276 0.479097,0.626055 1.028102,1.056259 1.966397,2.538957 3.226074,5.097883 0.978883,1.988517 1.230998,2.469432 1.895694,3.616296 0.415015,0.716072 0.58674,0.991599 1.71492,2.751587 0.902003,1.407149 0.969984,1.53486 0.993931,1.8673 0.01482,0.201396 0.0056,0.260551 -0.06056,0.371389 l -0.07779,0.131822 0.300159,0.290445 c 0.512129,0.495581 0.802212,0.888732 1.322991,1.793208 0.256504,0.44551 0.523973,0.909522 0.784377,1.360903 0.148166,0.256727 0.391725,0.662436 0.541383,0.901586 0.149639,0.239141 0.355193,0.5845 0.456743,0.767449 0.101485,0.182949 0.249115,0.429239 0.327893,0.547291 0.07871,0.118043 0.182977,0.285166 0.231427,0.371344 0.276767,0.491839 1.241991,1.902842 1.51759,2.218409 0.149825,0.171513 0.165753,0.235002 0.08223,0.327218 -0.05038,0.05575 -0.03538,0.07205 0.187811,0.202979 0.133535,0.07834 0.697597,0.369806 1.253565,0.647804 0.933359,0.46667 1.347226,0.69594 1.460176,0.808899 0.02445,0.02454 0.05001,0.08195 0.05667,0.127599 0.01111,0.07279 0.08705,0.109366 0.620347,0.296602 0.334496,0.117432 0.74503,0.261672 0.912264,0.320504 0.365064,0.128423 0.389475,0.147222 0.308057,0.237196 -0.121858,0.134638 -0.07334,0.134786 0.818844,0.0028 0.828411,-0.122812 1.369951,-0.06103 1.918622,0.218879 0.07631,0.03899 0.175013,0.127016 0.21913,0.195682 0.05482,0.08529 0.125571,0.13862 0.223371,0.168364 0.186199,0.05667 0.418738,0.290972 0.474745,0.478422 0.05186,0.17379 0.05612,0.368333 0.0093,0.441833 -0.02574,0.04056 -0.04871,0.01611 -0.101864,-0.107606 -0.108153,-0.2523 -0.239577,-0.383956 -0.443797,-0.444602 -0.09945,-0.02954 -0.217055,-0.04464 -0.261181,-0.03362 -0.07242,0.01815 -0.08186,0.04667 -0.09668,0.29463 -0.01111,0.186348 -0.04149,0.323393 -0.09482,0.426804 -0.08649,0.168049 -0.385521,0.49873 -0.419942,0.464309 -0.01111,-0.01204 0.01482,-0.131471 0.06093,-0.265543 0.108717,-0.320383 0.115014,-0.659778 0.01482,-0.759976 -0.03927,-0.03908 -0.296908,-0.145889 -0.572378,-0.237382 -0.420368,-0.139619 -0.558395,-0.16929 -0.858998,-0.184699 -0.31954,-0.0163 -0.768745,0.03297 -0.768745,0.08436 0,0.0096 0.0563,0.09131 0.125192,0.181476 0.0689,0.0902 0.125201,0.177754 0.125201,0.194617 0,0.06325 -0.397902,0.02806 -0.668927,-0.05927 -0.284508,-0.09159 -0.363324,-0.142213 -1.152766,-0.739872 -0.340617,-0.257903 -0.717258,-0.449353 -0.792508,-0.402847 -0.01852,0.0113 -0.03315,0.1336 -0.03315,0.271877 v 0.251449 L 85.245498,39.17657 c -0.08371,-0.0613 -0.385456,-0.334922 -0.670779,-0.607956 -0.285296,-0.273035 -0.723277,-0.654879 -0.973318,-0.848543 -0.498785,-0.386354 -1.185983,-0.799295 -1.330149,-0.799295 -0.124636,0 -0.206369,0.132767 -0.195479,0.317271 0.0056,0.0802 -8.15e-4,0.155252 -0.01296,0.166772 -0.02352,0.02352 -0.336524,-0.411793 -0.561877,-0.781442 -0.08168,-0.134063 -0.358064,-0.662472 -0.614105,-1.17425 -0.951417,-1.901759 -2.249534,-4.155886 -3.105217,-5.392042 -1.288477,-1.86143 -1.615204,-2.294448 -1.731681,-2.294957 -0.0439,-4.07e-4 -0.165753,-0.04047 -0.271025,-0.08946 -0.10519,-0.04899 -0.197127,-0.08908 -0.204165,-0.08908 -0.0074,0 -0.07927,0.213305 -0.160381,0.474014 -0.08112,0.260708 -0.185848,0.570609 -0.232632,0.688661 -0.04686,0.118052 -0.09537,0.258255 -0.107967,0.311558 -0.01296,0.05334 -0.04797,0.1177 -0.0789,0.14311 -0.05056,0.04167 -0.05371,-0.0046 -0.03352,-0.47255 0.01296,-0.285305 0.04112,-0.715646 0.06408,-0.956325 0.03297,-0.345599 0.03223,-0.460299 -0.0037,-0.545569 -0.02463,-0.05936 -0.05704,-0.107967 -0.07223,-0.107967 -0.04686,0 -0.512333,-0.740964 -0.831605,-1.323667 -0.411163,-0.750432 -0.438278,-0.798654 -0.633348,-1.126895 -0.160197,-0.269597 -0.389013,-0.679092 -0.69957,-1.252113 -0.07464,-0.137733 -0.221741,-0.407383 -0.326903,-0.599225 -0.105189,-0.191842 -0.277201,-0.505764 -0.382307,-0.697605 -0.23728,-0.433067 -0.956927,-1.86001 -1.204319,-2.387955 -0.306122,-0.653304 -0.682762,-1.584004 -1.17989,-2.915631 -0.404616,-1.083686 -0.867647,-2.098569 -1.043697,-2.287552 -0.09131,-0.09803 -0.202729,-0.09286 -0.314901,0.01463 -0.06278,0.06012 -0.177235,0.106009 -0.359693,0.144216 -0.147241,0.03082 -0.364241,0.101157 -0.48232,0.156309 -0.351082,0.164013 -0.863109,0.497085 -1.097778,0.714079 -0.184273,0.170459 -0.9222,0.99265 -2.028293,2.260017 -1.924956,2.205595 -3.623301,3.672427 -4.762222,4.113072 -0.258209,0.0999 -0.670631,0.179885 -0.927562,0.179885 -0.255041,0 -0.686179,-0.10762 -0.933757,-0.233058 l -0.186755,-0.09464 -0.155205,0.111453 c -0.19633,0.140994 -0.375547,0.216239 -0.515074,0.216239 -0.192478,0 -1.50657,-0.343781 -1.950237,-0.510206 -0.556931,-0.208908 -1.208338,-0.482557 -1.288867,-0.541444 -0.04945,-0.03623 -0.08501,-0.194037 -0.162603,-0.722633 -0.0976,-0.664771 -0.166864,-0.977072 -0.338136,-1.524232 -0.07964,-0.254527 -0.08223,-0.28516 -0.03371,-0.401317 0.06964,-0.166587 0.06797,-0.720203 -0.0037,-1.021589 -0.09316,-0.395575 -0.360564,-0.723891 -0.789063,-0.969053 -0.311474,-0.1782 -0.830067,-0.231973 -1.165193,-0.120807 -0.140934,0.04677 -0.246466,0.119511 -0.407496,0.280925 -0.400347,0.401348 -0.535466,0.748162 -0.62144,1.595145 -0.0489,0.482644 -0.107596,0.959321 -0.131859,1.073167 -0.01111,0.04915 -0.0093,0.08034 9.26e-4,0.0693 0.01111,-0.01111 0.06742,-0.204189 0.125377,-0.429223 0.201257,-0.781177 0.259357,-0.98034 0.369065,-1.264802 0.278674,-0.722653 0.596428,-1.037371 1.047438,-1.037438 0.529308,-7e-5 1.07796,0.382984 1.216459,0.849299 0.06556,0.221064 0.06742,0.68904 0.0037,0.955856 -0.04575,0.191542 -0.04278,0.214595 0.08927,0.679719 0.142796,0.502922 0.286046,1.267396 0.351665,1.876663 0.140379,1.303232 0.204498,1.819901 0.364361,2.933518 0.09889,0.688662 0.259894,1.727022 0.357841,2.307466 0.09798,0.580443 0.209869,1.253093 0.248652,1.494781 0.03871,0.241688 0.111857,0.66025 0.162419,0.930136 0.145935,0.777932 0.144638,0.739575 0.02889,0.89139 -0.05593,0.07334 -0.132785,0.164493 -0.170753,0.202489 -0.06834,0.06825 -0.06816,0.07427 0.0074,0.502119 0.0876,0.490238 0.153158,0.916764 0.25606,1.667248 0.25318,1.845566 0.489441,3.019075 1.028046,5.106108 0.03167,0.12258 0.04649,0.233946 0.03297,0.247475 -0.01296,0.01352 -0.08408,0.0065 -0.156862,-0.01593 -0.07279,-0.02232 -0.138342,-0.03454 -0.14575,-0.02713 -0.0074,0.0074 0.127044,0.284592 0.298779,0.615949 0.602298,1.1621 0.694874,1.346151 0.694874,1.381313 0,0.02056 -0.0526,0.02695 -0.125191,0.01519 -0.0689,-0.01111 -0.125201,-0.01259 -0.125201,-0.0028 0,0.02315 0.254004,0.366676 0.509879,0.689522 0.115005,0.145194 0.218407,0.309808 0.229612,0.365806 0.01482,0.07093 0.06593,0.128507 0.170568,0.189801 0.28686,0.168105 0.592492,0.556247 0.592492,0.752392 0,0.10305 0.07927,0.218277 0.215647,0.31353 0.162789,0.113737 0.242207,0.251856 0.272785,0.474977 0.0263,0.191635 -0.01926,0.210619 -0.130572,0.05436 -0.126303,-0.177412 -0.365565,-0.317152 -0.642869,-0.375483 l -0.254402,-0.05353 -0.254856,0.144407 c -0.140194,0.07945 -0.36488,0.241975 -0.499397,0.36124 -0.218852,0.194015 -0.24454,0.207971 -0.244133,0.132655 z M 16.850548,34.465058 c -0.06742,-0.07603 -0.137234,-0.305446 -0.137419,-0.452038 -1.12e-4,-0.05464 0.03186,-0.190302 0.07093,-0.301557 0.03908,-0.111245 0.06723,-0.206007 0.0626,-0.210554 -0.03408,-0.03315 -0.311637,0.112162 -0.424054,0.221917 -0.07575,0.0739 -0.147049,0.124997 -0.158531,0.113495 -0.03723,-0.03713 0.05945,-0.328939 0.14742,-0.445278 0.04704,-0.06223 0.154457,-0.139416 0.238797,-0.171605 0.110194,-0.04213 0.173162,-0.09564 0.224185,-0.19083 0.09242,-0.172197 0.351473,-0.277998 0.808752,-0.330227 0.346991,-0.03963 0.649738,-0.02769 1.443062,0.05695 0.444741,0.04741 0.466632,0.04667 0.536711,-0.01917 0.127973,-0.120182 0.455982,-0.243938 0.799584,-0.30164 0.183348,-0.03075 0.347851,-0.06501 0.365705,-0.07603 0.01852,-0.01111 0.05204,-0.08501 0.07575,-0.164438 0.02741,-0.0914 0.09631,-0.189848 0.188033,-0.268311 0.149278,-0.127766 0.657278,-0.43362 1.132523,-0.681855 0.222833,-0.116376 0.264468,-0.151343 0.235279,-0.197627 -0.02685,-0.0426 0.0037,-0.120191 0.127785,-0.319605 0.301585,-0.486645 0.753938,-1.450665 1.130837,-2.409878 0.100559,-0.255792 0.320226,-0.815909 0.488275,-1.244713 0.584537,-1.491485 0.868314,-1.918511 1.628678,-2.450699 0.312873,-0.218983 0.31191,-0.217857 0.182051,-0.214166 -0.254856,0.0072 -0.239021,-0.123325 0.09852,-0.813205 0.240873,-0.492138 1.455656,-2.700429 1.948014,-3.541157 0.138342,-0.236112 0.342136,-0.59028 0.453039,-0.787041 0.335561,-0.595369 1.240453,-2.071757 1.639337,-2.674673 0.133155,-0.201394 0.329782,-0.509165 0.436759,-0.683937 0.245206,-0.400595 0.454242,-0.634075 0.644424,-0.71984 0.123339,-0.05558 0.169086,-0.107213 0.267663,-0.301765 0.23715,-0.467825 0.536957,-0.636516 1.341873,-0.755069 0.926173,-0.136418 2.454847,-0.135474 3.380687,0.002 0.117968,0.0176 0.411607,0.05932 0.652332,0.09284 l 0.437648,0.06095 0.02074,0.128585 c 0.08464,0.523901 0.219241,0.884523 0.488395,1.309136 0.334459,0.527622 0.856368,1.13471 1.289645,1.500123 0.132785,0.11201 0.241502,0.214718 0.241521,0.228243 0,0.03617 -1.700085,-0.02126 -1.940829,-0.06558 -0.113153,-0.02084 -0.378807,-0.111324 -0.590306,-0.201115 -0.544781,-0.231273 -1.56804,-0.636489 -1.779762,-0.704785 -0.381733,-0.123158 -0.80825,-0.200775 -1.316675,-0.239617 -0.291287,-0.02226 -0.55307,-0.03147 -0.581694,-0.02048 -0.02871,0.01093 -0.27634,0.02232 -0.55044,0.02519 -0.462058,0.0048 -0.507999,-8.11e-4 -0.631089,-0.07684 l -0.132785,-0.08205 -0.07964,0.09267 c -0.0726,0.08431 -0.221185,0.511404 -0.607197,1.74435 -0.327264,1.04528 -0.666668,1.87211 -1.270235,3.094506 -0.460002,0.931575 -0.775709,1.511926 -1.133791,2.084039 -0.126312,0.201775 -0.304307,0.523745 -0.395624,0.715494 l -0.165947,0.348633 -0.02389,0.769154 c -0.0263,0.849581 -0.0513,0.978542 -0.276498,1.425617 -0.132979,0.264181 -0.37488,0.578064 -0.4152,0.538855 -0.01111,-0.01148 0.0037,-0.07075 0.03352,-0.131572 0.152974,-0.306632 0.235512,-1.193994 0.162234,-1.743471 -0.05371,-0.403194 -0.108532,-0.662145 -0.139462,-0.66078 -0.01297,5.41e-4 -0.09297,0.126418 -0.177606,0.279664 -0.215184,0.390146 -0.58575,0.836989 -0.94498,1.139499 -0.703876,0.592733 -0.856405,0.871685 -1.619742,2.96218 -0.787053,2.155439 -0.888723,2.39621 -1.117688,2.646649 -0.0939,0.102661 -0.235057,0.268775 -0.313771,0.36914 -0.07871,0.100355 -0.154454,0.183273 -0.16853,0.184254 -0.01482,9.26e-4 -0.04538,-0.09481 -0.06982,-0.212869 -0.02445,-0.118043 -0.05316,-0.214518 -0.06408,-0.214361 -0.02074,3.99e-4 -0.611957,0.598122 -1.178649,1.191725 -0.338219,0.354286 -0.669501,0.632497 -0.75316,0.632497 -0.03111,0 -0.03797,-0.02954 -0.02185,-0.09361 0.05167,-0.205989 0.06353,-0.299908 0.0376,-0.299908 -0.01482,0 -0.162048,0.09641 -0.326727,0.21424 -0.49351,0.353007 -0.937806,0.603854 -1.236793,0.698301 -0.294895,0.09316 -0.405367,0.108532 -0.435017,0.06056 -0.0093,-0.01574 0.04408,-0.156584 0.119639,-0.313021 0.09741,-0.201924 0.12501,-0.291472 0.09482,-0.308733 -0.05852,-0.03343 -0.759265,0.03065 -1.071902,0.09797 -0.140753,0.03028 -0.468168,0.128155 -0.727411,0.217416 l -0.471354,0.162289 -0.05982,0.148936 c -0.03297,0.08196 -0.07038,0.251346 -0.08316,0.376501 -0.02204,0.215296 -0.02648,0.223973 -0.08242,0.160974 z m 75.65683,-1.929392 c -0.105004,-0.22012 -0.242836,-0.374093 -0.431295,-0.481736 -0.147046,-0.08399 -0.206887,-0.09888 -0.329486,-0.08205 -0.08242,0.0113 -0.26019,8.15e-4 -0.395106,-0.02324 -0.33644,-0.0601 -1.015452,-0.05176 -1.421503,0.01741 -0.185301,0.03158 -0.37076,0.05991 -0.412126,0.06306 -0.08946,0.0065 -0.09168,0.025 -0.02148,0.192718 0.09611,0.230113 0.07927,0.262793 -0.136128,0.262793 -0.104263,0 -0.341802,-0.04186 -0.527687,-0.09296 -0.753215,-0.207147 -1.241194,-0.327181 -1.401094,-0.344646 -0.15113,-0.01648 -0.165391,-0.01204 -0.135943,0.04278 0.04056,0.07594 0.0093,0.204684 -0.05464,0.229483 -0.06723,0.02584 -0.331987,-0.120858 -0.731741,-0.405412 -0.692411,-0.492905 -1.032047,-0.710294 -1.528869,-0.978679 -0.280146,-0.151307 -0.518204,-0.275109 -0.529057,-0.275109 -0.01111,0 -0.21563,-0.09661 -0.455058,-0.214648 -0.239447,-0.118052 -0.456169,-0.214647 -0.481616,-0.214647 -0.03075,0 -0.0463,0.05214 -0.0463,0.15501 0,0.08529 -0.0093,0.165197 -0.0226,0.177606 -0.107421,0.107375 -0.742788,-0.65487 -1.112353,-1.334326 -0.485969,-0.893557 -1.464398,-2.469821 -1.943051,-3.130275 -0.07131,-0.09838 -0.287889,-0.412302 -0.481348,-0.697611 -0.193441,-0.285302 -0.391596,-0.571488 -0.440315,-0.635973 -0.101309,-0.134141 -0.09038,-0.159477 0.07279,-0.167533 0.06427,-0.0031 0.306326,-0.0418 0.537846,-0.08582 0.231538,-0.04402 0.435221,-0.07125 0.452631,-0.06049 0.01667,0.01074 0.125006,0.176532 0.239234,0.368415 0.307363,0.516488 1.184751,1.811037 1.642735,2.42379 0.411978,0.55119 0.581731,0.772459 1.138959,1.484651 0.442556,0.565599 0.471782,0.61893 0.424164,0.77406 -0.02852,0.0928 -0.0276,0.1286 0.0037,0.14025 0.02315,0.0083 0.186921,0.06223 0.36399,0.119089 0.475004,0.152584 0.816011,0.278905 1.065848,0.39479 0.122052,0.05667 0.455409,0.20473 0.740621,0.32907 0.564821,0.246253 0.979077,0.501637 1.091286,0.672788 0.03945,0.06001 0.09575,0.119127 0.125201,0.131332 0.02945,0.01222 0.359527,0.02889 0.73337,0.03704 0.373853,0.0083 0.763903,0.03167 0.866795,0.05214 0.177235,0.03528 0.221797,0.07029 0.349905,0.27396 0.0037,0.0046 0.210203,-0.0714 0.460235,-0.169567 0.874906,-0.343516 1.20868,-0.429657 1.664877,-0.429657 0.325068,0 0.510694,0.04102 0.622143,0.137546 0.05056,0.0438 0.05945,0.08566 0.0413,0.193533 -0.02185,0.128896 -0.01111,0.149621 0.15464,0.325708 0.09779,0.103439 0.205776,0.242003 0.239873,0.307928 0.07168,0.13861 0.127608,0.490025 0.09297,0.584333 -0.01945,0.05297 -0.03482,0.04102 -0.08631,-0.06695 z M 72.700126,24.447455 c -1.149108,-0.07907 -2.301337,-0.27369 -3.064397,-0.517633 -0.417775,-0.133567 -1.235359,-0.463453 -1.317462,-0.531592 -0.02093,-0.01741 -0.126303,-0.04212 -0.233947,-0.05495 -0.996838,-0.118713 -2.144567,-0.444712 -3.14135,-0.892243 -0.823234,-0.369616 -1.75099,-0.951266 -2.376245,-1.489771 l -0.384835,-0.331432 0.783923,-0.789333 c 0.758373,-0.763606 1.313453,-1.357895 1.789772,-1.916238 0.48308,-0.566251 1.601795,-1.815826 1.800857,-2.011473 0.23779,-0.233766 0.811269,-0.627209 1.100899,-0.75529 0.107606,-0.0476 0.308289,-0.110621 0.445926,-0.14003 0.137601,-0.02941 0.276322,-0.06449 0.308178,-0.07792 0.06945,-0.0293 0.267238,0.337281 0.587176,1.088654 0.186089,0.437038 0.281573,0.690008 0.48608,1.287888 0.03704,0.108211 0.08186,0.228957 0.09945,0.268309 0.01852,0.03936 0.05223,0.127899 0.07686,0.19676 0.33808,0.945576 1.427227,3.289692 2.102692,4.52549 0.0752,0.137733 0.198405,0.363111 0.273609,0.500845 0.07519,0.137733 0.198534,0.357558 0.274118,0.488502 0.07556,0.130937 0.154454,0.275832 0.175198,0.321973 0.02074,0.04614 0.05723,0.116213 0.08094,0.155735 0.135748,0.225791 0.347284,0.627757 0.347284,0.659854 0,0.0206 -0.01296,0.03465 -0.02685,0.03121 -0.01482,-0.0033 -0.09926,-0.0113 -0.187811,-0.01741 z M 51.454405,8.7557799 C 51.035463,8.6141565 50.580424,8.5237293 50.035309,8.4737582 L 49.56862,8.430975 49.596957,8.2138948 c 0.01482,-0.1193993 0.0263,-0.6436924 0.02371,-1.1651074 -0.0037,-0.5767562 0.0093,-0.9835955 0.03223,-1.0388497 0.0639,-0.1581608 0.305641,-0.3421321 0.566979,-0.4315962 0.433314,-0.1483456 0.901975,-0.091326 1.257029,0.1529193 0.268368,0.184627 0.276054,0.2214835 0.224816,1.075359 -0.04371,0.727804 -0.03334,1.1930183 0.03889,1.7573924 0.01982,0.1545492 0.03093,0.2837173 0.02482,0.2870418 -0.0056,0.00333 -0.145935,-0.039542 -0.310854,-0.095267 z M 61.814102,7.8626634 c 0.642054,-1.2204884 1.16938,-2.1248258 1.524758,-2.61491 0.144824,-0.1998299 0.378585,-0.5358001 0.519315,-0.7465971 0.418183,-0.6263532 0.916024,-1.1964419 1.148247,-1.314917 0.177236,-0.090428 0.31717,-0.091039 0.77671,-0.00352 0.487635,0.092915 0.685132,0.1907371 0.782617,0.3876536 0.04167,0.084011 0.268543,0.3496321 0.504341,0.590282 0.453706,0.4630548 0.626441,0.6727674 1.052884,1.2782467 0.435443,0.6182975 1.51483,2.2875473 1.49292,2.3088176 -0.0056,0.00556 -0.259802,0.028281 -0.564766,0.050673 -0.304974,0.022392 -0.576888,0.048358 -0.604225,0.05773 C 68.388192,7.8762549 67.813397,7.5395133 67.72935,7.4357141 67.665453,7.3567597 67.584155,7.1999315 67.050884,6.1252272 66.574306,5.1648466 66.454003,4.9937158 66.311495,5.073461 c -0.08131,0.045469 -0.39605,0.4318296 -0.603827,0.7410714 -0.17317,0.2577807 -0.475782,0.8477145 -0.76229,1.4862832 -0.105004,0.2338323 -0.10519,0.2341842 -0.262404,0.2425056 -0.42359,0.022429 -2.07153,0.392569 -2.411129,0.5415499 -0.03926,0.017224 -0.188181,0.074306 -0.33069,0.1267327 -0.14261,0.052433 -0.268246,0.1100824 -0.279377,0.1280847 -0.01111,0.017965 -0.04167,0.032745 -0.06797,0.032745 -0.02963,0 0.05445,-0.1942477 0.22037,-0.5097885 z"
       id="path1" />
  </g>
</svg>
